<svg xmlns="http://www.w3.org/2000/svg" viewBox="0 0 400 400" role="img" aria-label="Garden of Life multivitamin">
  <defs>
    <linearGradient id="bg" x1="0" y1="0" x2="1" y2="1">
      <stop offset="0%" stop-color="#FAFAFA"/>
      <stop offset="100%" stop-color="#F5F5F5"/>
    </linearGradient>
    <radialGradient id="accent" cx="100%" cy="0%" r="80%">
      <stop offset="0%" stop-color="#65A30D" stop-opacity="0.20"/>
      <stop offset="100%" stop-color="#65A30D" stop-opacity="0"/>
    </radialGradient>
  </defs>
  <rect width="400" height="400" fill="url(#bg)"/>
  <rect width="400" height="400" fill="url(#accent)"/>
  <g transform="translate(200 210)">
    <rect x="-85" y="-90" width="170" height="180" rx="20" fill="#FAFAFA" stroke="#0F172A" stroke-width="3"/>
    <rect x="-95" y="-100" width="190" height="25" rx="6" fill="#0F172A"/>
    <text x="0" y="-50" text-anchor="middle" font-family="system-ui, sans-serif" font-size="13" font-weight="800" fill="#65A30D" letter-spacing="2">GARDEN OF LIFE</text>
    <text x="0" y="-30" text-anchor="middle" font-family="system-ui, sans-serif" font-size="22" font-weight="900" fill="#0F172A" letter-spacing="2">SPORT</text>
    <g transform="translate(0 20)" fill="#65A30D">
      <path d="M -25 -10 C -25 -25, -10 -30, 0 -20 C 10 -30, 25 -25, 25 -10 C 25 5, 0 25, 0 25 C 0 25, -25 5, -25 -10 Z"/>
      <path d="M 0 -20 L 0 25" stroke="#FAFAFA" stroke-width="2"/>
    </g>
    <text x="0" y="78" text-anchor="middle" font-family="system-ui, sans-serif" font-size="9" font-weight="600" fill="#525252" letter-spacing="2">CERTIFIED ORGANIC</text>
  </g>
</svg>
