<svg xmlns="http://www.w3.org/2000/svg" viewBox="0 0 800 500" preserveAspectRatio="xMidYMid slice" role="img" aria-label="Weight Loss">
  <defs>
    <linearGradient id="bg" x1="0" y1="0" x2="1" y2="1">
      <stop offset="0%" stop-color="#7C2D12"/>
      <stop offset="100%" stop-color="#9A3412"/>
    </linearGradient>
    <radialGradient id="glow" cx="50%" cy="40%" r="60%">
      <stop offset="0%" stop-color="#FB923C" stop-opacity="0.45"/>
      <stop offset="100%" stop-color="#FB923C" stop-opacity="0"/>
    </radialGradient>
  </defs>
  <rect width="800" height="500" fill="url(#bg)"/>
  <rect width="800" height="500" fill="url(#glow)"/>
  <!-- Flame: outer white body + inner orange core -->
  <g transform="translate(400, 268)">
    <path d="M 0,88 C -62,76 -90,28 -88,-28 C -86,-75 -60,-102 -36,-116 C -18,-126 0,-130 0,-130 C 0,-130 18,-126 36,-116 C 60,-102 86,-75 88,-28 C 90,28 62,76 0,88 Z" fill="#FAFAFA" opacity="0.95"/>
    <path d="M 0,52 C -34,28 -46,-18 -28,-60 C -15,-86 0,-98 0,-98 C 0,-98 15,-86 28,-60 C 46,-18 34,28 0,52 Z" fill="#FB923C" opacity="0.85"/>
  </g>
  <text x="40" y="460" font-family="system-ui, -apple-system, sans-serif" font-size="18" font-weight="600" fill="#FAFAFA" letter-spacing="3" opacity="0.85">WEIGHT LOSS</text>
</svg>
