<svg xmlns="http://www.w3.org/2000/svg" viewBox="0 0 800 500" preserveAspectRatio="xMidYMid slice" role="img" aria-label="Wellness">
  <defs>
    <linearGradient id="bg" x1="0" y1="0" x2="1" y2="1">
      <stop offset="0%" stop-color="#134E4A"/>
      <stop offset="100%" stop-color="#115E59"/>
    </linearGradient>
    <radialGradient id="glow" cx="50%" cy="20%" r="60%">
      <stop offset="0%" stop-color="#5EEAD4" stop-opacity="0.4"/>
      <stop offset="100%" stop-color="#5EEAD4" stop-opacity="0"/>
    </radialGradient>
  </defs>
  <rect width="800" height="500" fill="url(#bg)"/>
  <rect width="800" height="500" fill="url(#glow)"/>
  <g transform="translate(400 260)" fill="#FAFAFA" opacity="0.95">
    <ellipse cx="0" cy="40" rx="120" ry="20" opacity="0.5"/>
    <path d="M 0 30 C -50 0, -90 -50, -60 -90 C -30 -110, -10 -80, 0 -50 C 10 -80, 30 -110, 60 -90 C 90 -50, 50 0, 0 30 Z"/>
    <path d="M 0 30 C -90 0, -130 -30, -110 -50 C -80 -60, -40 -40, 0 -10 C 40 -40, 80 -60, 110 -50 C 130 -30, 90 0, 0 30 Z" opacity="0.7"/>
    <circle cx="0" cy="-90" r="14" fill="#5EEAD4"/>
  </g>
  <text x="40" y="460" font-family="system-ui, -apple-system, sans-serif" font-size="18" font-weight="600" fill="#FAFAFA" letter-spacing="3" opacity="0.85">WELLNESS</text>
</svg>
